# xmcd
#
# Track frame offsets:
#	150
#	20125
#	30445
#	42952
#	62240
#	78205
#	94689
#	108722
#	124378
#	138480
#	156210
#
# Disc length: 2370 seconds
#
# Revision: 0
# Processed by: cddbd v1.5.2PL0 Copyright (c) Steve Scherf et al.
# Submitted via: dBpowerAMP V4.0
#
DISCID=9309400b
DTITLE=Angelo Rossi - I don't want to take nothing with me when I'm gone
DYEAR=2006
DGENRE=Blues
TTITLE0=Lost in Missisipi
TTITLE1=Look at Me
TTITLE2=Broken Wheel
TTITLE3=I Got To Pay My Bill
TTITLE4=Me and My Mule
TTITLE5=Slowly Stuff Blues
TTITLE6=Brother Wim Blues
TTITLE7=Flat Green Land
TTITLE8=Cherry Ball Blues
TTITLE9=Don't Shut Your Door
TTITLE10=No More War
EXTD=
EXTT0=
EXTT1=
EXTT2=
EXTT3=
EXTT4=
EXTT5=
EXTT6=
EXTT7=
EXTT8=
EXTT9=
EXTT10=
PLAYORDER=
